# xmcd
#
# Track frame offsets:
#	150
#	14853
#	31159
#	48788
#	64224
#	80752
#	96797
#	110093
#	126140
#	140583
#	155267
#	169628
#	183827
#	197858
#	212506
#	224440
#	239033
#	254367
#
# Disc length: 3568 seconds
#
# Revision: 1
# Processed by: cddbd v1.5.2PL0 Copyright (c) Steve Scherf et al.
# Submitted via: audiograbber 1.82.02
#
DISCID=090dee12
DTITLE=Various Artist - Country Radio - March 2018
DYEAR=2018
DGENRE=Country
TTITLE0=LoCash - Don't Get Better Than That
TTITLE1=Faren Rachels - Nowhere Tonight
TTITLE2=Back Road Story - Nothing Left To Lose
TTITLE3=Brothers Osborne - Shoot Me Straight (PO Clean Edit)
TTITLE4=Luke Bryan - Most People Are Good
TTITLE5=Blake Shelton - I Lived It
TTITLE6=Dierks Bentley - Woman, Amen
TTITLE7=Noe Palma - Swerve
TTITLE8=Levi Hart - Like A Good Country Song
TTITLE9=Dan and Shay - Tequila
TTITLE10=Aaron Watson - Run Wild Horses
TTITLE11=Uncle Si (Ft. Sicotics) - Throwback Man
TTITLE12=Alexis Taylor - Blame The Whiskey
TTITLE13=Aaron Pax Taylor - My Weekend
TTITLE14=Sir Rosevelt (Zac Brown Project) - Something 'bout You
TTITLE15=Trailerhawk - Car
TTITLE16=Cash Creek - Make Your Momma Proud
TTITLE17=Jagertown - Rearview
EXTD=
EXTT0=
EXTT1=
EXTT2=
EXTT3=
EXTT4=
EXTT5=
EXTT6=
EXTT7=
EXTT8=
EXTT9=
EXTT10=
EXTT11=
EXTT12=
EXTT13=
EXTT14=
EXTT15=
EXTT16=
EXTT17=
PLAYORDER=
